<svg xmlns="http://www.w3.org/2000/svg" xmlns:xlink="http://www.w3.org/1999/xlink" width="500" zoomAndPan="magnify" viewBox="0 0 375 374.999991" height="500" preserveAspectRatio="xMidYMid meet" version="1.0"><defs><g/><clipPath id="897ae34229"><path d="M 75.785156 87.773438 L 234 87.773438 L 234 281.648438 L 75.785156 281.648438 Z M 75.785156 87.773438 " clip-rule="nonzero"/></clipPath></defs><path fill="#ffffff" d="M 338.882812 235.546875 L 327.550781 237.925781 C 328.804688 238.363281 330.121094 238.550781 331.496094 238.550781 C 332.375 238.550781 333.25 238.425781 334.125 238.175781 C 335.941406 237.675781 337.570312 236.734375 338.882812 235.546875 Z M 338.882812 235.546875 " fill-opacity="1" fill-rule="nonzero"/><path fill="#ffffff" d="M 335.878906 216.886719 L 322.855469 219.578125 C 322.042969 220.457031 321.417969 221.519531 320.914062 222.585938 L 338.949219 218.828125 C 338.007812 218.078125 337.007812 217.386719 335.878906 216.886719 Z M 335.878906 216.886719 " fill-opacity="1" fill-rule="nonzero"/><path fill="#ffffff" d="M 328.367188 216.261719 C 328.367188 216.261719 328.304688 216.261719 328.304688 216.261719 L 329.679688 215.949219 C 329.242188 216.074219 328.804688 216.136719 328.367188 216.261719 Z M 328.367188 216.261719 " fill-opacity="1" fill-rule="nonzero"/><path fill="#ffffff" d="M 324.546875 236.296875 L 341.011719 232.914062 C 341.515625 232.039062 341.953125 231.039062 342.203125 230.035156 L 323.167969 233.980469 C 322.542969 234.105469 321.980469 233.792969 321.855469 233.292969 L 321.792969 233.101562 C 321.667969 232.601562 322.105469 232.039062 322.730469 231.914062 L 342.578125 227.78125 C 342.578125 227.53125 342.578125 227.21875 342.578125 226.96875 C 342.578125 226.339844 342.515625 225.777344 342.390625 225.214844 L 322.230469 229.410156 C 321.605469 229.535156 321.039062 229.222656 320.914062 228.71875 L 320.851562 228.53125 C 320.726562 228.03125 321.164062 227.46875 321.792969 227.34375 L 341.828125 223.210938 C 341.515625 222.398438 341.074219 221.582031 340.574219 220.832031 L 321.289062 224.839844 C 320.914062 224.902344 320.539062 224.839844 320.289062 224.652344 C 320.039062 225.589844 319.976562 226.527344 319.976562 227.53125 C 320.039062 230.535156 321.289062 233.355469 323.480469 235.421875 C 323.796875 235.734375 324.171875 236.046875 324.546875 236.296875 Z M 324.546875 236.296875 " fill-opacity="1" fill-rule="nonzero"/><path fill="#ffffff" d="M 351.59375 271.171875 L 331.683594 275.304688 C 331.058594 275.429688 330.496094 275.117188 330.371094 274.613281 C 330.246094 274.113281 330.683594 273.550781 331.308594 273.425781 L 353.347656 268.855469 L 352.847656 266.351562 L 330.808594 270.921875 C 330.183594 271.046875 329.617188 270.734375 329.492188 270.230469 L 329.429688 270.042969 C 329.304688 269.542969 329.742188 268.980469 330.371094 268.855469 L 352.410156 264.285156 L 351.90625 261.78125 L 329.867188 266.351562 C 329.242188 266.476562 328.679688 266.164062 328.554688 265.660156 L 328.492188 265.472656 C 328.367188 264.972656 328.804688 264.410156 329.429688 264.285156 L 351.46875 259.714844 L 351.21875 258.398438 C 350.71875 258.085938 350.21875 257.773438 349.777344 257.460938 L 328.929688 261.78125 C 328.304688 261.90625 327.738281 261.589844 327.613281 261.089844 L 327.550781 260.902344 C 327.425781 260.402344 327.863281 259.839844 328.492188 259.714844 L 347.777344 255.707031 C 347.398438 255.332031 346.960938 254.953125 346.648438 254.515625 C 346.335938 254.140625 345.960938 253.828125 345.523438 253.515625 L 327.992188 257.144531 C 327.363281 257.269531 326.800781 256.957031 326.675781 256.457031 L 326.613281 256.269531 C 326.488281 255.769531 326.925781 255.207031 327.550781 255.078125 L 342.328125 252.011719 C 341.011719 251.699219 339.636719 251.699219 338.382812 252.011719 C 338.382812 252.011719 338.007812 252.136719 337.882812 252.136719 C 335.691406 252.699219 333.375 253.015625 331.121094 252.953125 C 329.617188 252.953125 328.179688 252.761719 326.738281 252.511719 C 326.613281 252.511719 326.550781 252.511719 326.425781 252.449219 C 315.59375 250.320312 307.078125 241.429688 305.824219 230.160156 L 305.761719 229.847656 C 305.199219 224.273438 303.070312 219.140625 299.753906 215.007812 L 311.085938 269.480469 C 312.964844 278.371094 323.546875 283.441406 333.9375 280.375 L 352.722656 274.800781 C 353.785156 274.488281 354.476562 273.550781 354.289062 272.609375 C 353.910156 271.546875 352.785156 270.921875 351.59375 271.171875 Z M 351.59375 271.171875 " fill-opacity="1" fill-rule="nonzero"/><path fill="#ffffff" d="M 339.699219 202.925781 L 339.449219 201.734375 L 337.195312 202.234375 C 338.007812 202.425781 338.882812 202.675781 339.699219 202.925781 Z M 339.699219 202.925781 " fill-opacity="1" fill-rule="nonzero"/><path fill="#ffffff" d="M 294.242188 189.085938 L 300.378906 195.097656 C 307.078125 201.671875 316.40625 204.300781 325.296875 202.234375 C 326.738281 201.921875 328.179688 201.671875 329.617188 201.609375 L 338.949219 199.667969 L 338.445312 197.164062 L 316.40625 201.734375 C 315.78125 201.859375 315.21875 201.546875 315.09375 201.046875 L 315.03125 200.859375 C 314.90625 200.359375 315.34375 199.792969 315.96875 199.667969 L 338.007812 195.097656 L 337.507812 192.59375 L 315.46875 197.164062 C 314.84375 197.289062 314.277344 196.976562 314.152344 196.476562 L 314.089844 196.289062 C 313.964844 195.789062 314.402344 195.222656 315.03125 195.097656 L 337.070312 190.527344 L 336.566406 188.023438 L 314.527344 192.59375 C 313.902344 192.71875 313.339844 192.40625 313.214844 191.90625 C 313.089844 191.40625 313.527344 190.839844 314.152344 190.714844 L 335.441406 186.269531 C 335.878906 186.207031 336.128906 185.832031 336.066406 185.519531 C 336.003906 185.207031 335.628906 184.957031 335.191406 185.019531 L 313.589844 189.527344 C 313.152344 189.652344 312.714844 189.402344 312.652344 189.023438 L 312.652344 188.960938 C 312.589844 188.585938 312.902344 188.210938 313.339844 188.085938 L 334.941406 183.578125 C 335.378906 183.515625 335.628906 183.140625 335.566406 182.828125 C 335.503906 182.511719 335.128906 182.261719 334.691406 182.324219 L 313.089844 186.832031 C 312.652344 186.960938 312.210938 186.707031 312.148438 186.332031 L 312.148438 186.269531 C 312.085938 185.894531 312.398438 185.519531 312.839844 185.394531 L 334.4375 180.886719 C 334.878906 180.824219 335.128906 180.449219 335.066406 180.132812 C 335.003906 179.820312 334.628906 179.570312 334.1875 179.632812 L 312.589844 184.140625 C 312.148438 184.265625 311.710938 184.015625 311.648438 183.640625 L 311.648438 183.578125 C 311.585938 183.203125 311.898438 182.828125 312.335938 182.703125 L 333.9375 178.195312 C 334.375 178.128906 334.628906 177.753906 334.566406 177.441406 C 334.5 177.066406 334.125 176.878906 333.6875 176.941406 L 312.085938 181.449219 C 311.648438 181.574219 311.210938 181.324219 311.148438 180.949219 L 311.148438 180.886719 C 311.085938 180.511719 311.398438 180.132812 311.835938 180.007812 L 333.4375 175.5 C 333.875 175.4375 334.125 175.0625 334.0625 174.75 C 334 174.375 333.625 174.1875 333.1875 174.25 L 311.585938 178.757812 C 311.148438 178.882812 310.710938 178.632812 310.648438 178.257812 L 310.648438 178.195312 C 310.585938 177.816406 310.898438 177.441406 311.335938 177.316406 L 332.9375 172.808594 C 333.375 172.746094 333.625 172.371094 333.5625 172.058594 C 333.5 171.683594 333.125 171.492188 332.6875 171.558594 L 311.085938 176.066406 C 310.648438 176.191406 310.207031 175.9375 310.144531 175.5625 L 310.144531 175.5 C 310.082031 175.125 310.398438 174.75 310.835938 174.625 L 332.4375 170.117188 C 332.875 170.054688 333.125 169.679688 333.0625 169.367188 C 333 168.988281 332.625 168.800781 332.183594 168.863281 L 310.585938 173.371094 C 310.144531 173.496094 309.707031 173.246094 309.644531 172.871094 L 309.644531 172.808594 C 309.582031 172.433594 309.894531 172.058594 310.335938 171.933594 L 331.933594 167.425781 C 332.375 167.363281 332.625 166.984375 332.5625 166.671875 C 332.5 166.296875 332.121094 166.109375 331.683594 166.171875 L 310.082031 170.679688 C 309.644531 170.804688 309.207031 170.554688 309.144531 170.179688 L 309.144531 170.117188 C 309.082031 169.742188 309.394531 169.367188 309.832031 169.238281 L 331.433594 164.730469 C 331.871094 164.667969 332.121094 164.292969 332.058594 163.980469 C 331.996094 163.605469 331.621094 163.417969 331.183594 163.480469 L 309.582031 167.988281 C 309.144531 168.113281 308.707031 167.863281 308.644531 167.488281 L 308.644531 167.425781 C 308.582031 167.046875 308.894531 166.671875 309.332031 166.546875 L 330.933594 162.039062 C 331.371094 161.976562 331.621094 161.601562 331.558594 161.289062 C 331.496094 160.914062 331.121094 160.726562 330.683594 160.789062 L 309.082031 165.296875 C 308.644531 165.421875 308.207031 165.171875 308.144531 164.792969 L 308.144531 164.730469 C 308.078125 164.355469 308.394531 163.980469 308.832031 163.855469 L 330.433594 159.347656 C 330.871094 159.285156 331.121094 158.910156 331.058594 158.597656 C 330.996094 158.21875 330.621094 158.03125 330.183594 158.09375 L 308.582031 162.601562 C 308.144531 162.726562 307.703125 162.476562 307.640625 162.101562 L 307.640625 162.039062 C 307.578125 161.664062 307.890625 161.289062 308.332031 161.164062 L 329.929688 156.65625 C 330.371094 156.59375 330.621094 156.21875 330.558594 155.902344 C 330.496094 155.589844 330.121094 155.339844 329.679688 155.402344 L 308.082031 159.910156 C 307.640625 160.035156 307.203125 159.785156 307.140625 159.410156 L 307.140625 159.347656 C 307.078125 158.972656 307.390625 158.597656 307.828125 158.472656 L 329.429688 153.964844 C 329.867188 153.898438 330.121094 153.523438 330.054688 153.210938 C 329.992188 152.835938 329.617188 152.648438 329.179688 152.710938 L 307.578125 157.21875 C 307.140625 157.34375 306.703125 157.09375 306.640625 156.71875 L 306.640625 156.65625 C 306.578125 156.28125 306.890625 155.902344 307.328125 155.777344 L 328.929688 151.269531 C 329.367188 151.207031 329.617188 150.832031 329.554688 150.519531 C 329.492188 150.144531 329.117188 149.957031 328.679688 150.019531 L 307.078125 154.527344 C 306.640625 154.652344 306.203125 154.402344 306.140625 154.027344 L 306.140625 153.964844 C 306.078125 153.585938 306.390625 153.210938 306.828125 153.085938 L 328.429688 148.578125 C 328.867188 148.515625 329.117188 148.140625 329.054688 147.828125 C 328.992188 147.515625 328.617188 147.261719 328.179688 147.324219 L 306.578125 151.835938 C 306.140625 151.960938 305.699219 151.707031 305.636719 151.332031 L 305.636719 151.269531 C 305.574219 150.894531 305.890625 150.519531 306.328125 150.394531 L 327.929688 145.886719 C 328.367188 145.824219 328.617188 145.449219 328.554688 145.132812 C 328.492188 144.757812 328.117188 144.570312 327.675781 144.632812 L 306.078125 149.140625 C 305.636719 149.265625 305.199219 149.015625 305.136719 148.640625 L 305.136719 148.578125 C 305.074219 148.203125 305.386719 147.828125 305.824219 147.703125 L 327.425781 143.195312 C 327.867188 143.132812 328.117188 142.753906 328.054688 142.441406 C 327.992188 142.066406 327.613281 141.878906 327.175781 141.941406 L 305.574219 146.449219 C 305.136719 146.574219 304.699219 146.324219 304.636719 145.949219 L 304.636719 145.886719 C 304.574219 145.511719 304.886719 145.132812 305.324219 145.007812 L 326.925781 140.5 C 327.363281 140.4375 327.613281 140.0625 327.550781 139.75 C 327.488281 139.375 327.113281 139.1875 326.675781 139.25 L 305.074219 143.757812 C 304.636719 143.882812 304.199219 143.632812 304.136719 143.257812 L 304.136719 143.195312 C 304.074219 142.816406 304.386719 142.441406 304.824219 142.316406 L 326.425781 137.808594 C 326.863281 137.746094 327.113281 137.371094 327.050781 137.058594 C 326.988281 136.683594 326.613281 136.496094 326.175781 136.558594 L 304.574219 141.066406 C 304.136719 141.191406 303.699219 140.941406 303.632812 140.5625 L 303.632812 140.5 C 303.570312 140.125 303.886719 139.75 304.324219 139.625 L 325.925781 135.117188 C 326.363281 135.054688 326.613281 134.679688 326.550781 134.367188 C 326.488281 133.988281 326.113281 133.800781 325.675781 133.863281 L 304.074219 138.371094 C 303.632812 138.496094 303.195312 138.246094 303.132812 137.871094 L 303.132812 137.808594 C 303.070312 137.433594 303.382812 137.058594 303.824219 136.933594 L 325.421875 132.425781 C 325.863281 132.363281 326.113281 131.988281 326.050781 131.671875 C 325.988281 131.296875 325.609375 131.109375 325.171875 131.171875 L 303.570312 135.679688 C 303.132812 135.804688 302.695312 135.554688 302.632812 135.179688 L 302.632812 135.117188 C 302.570312 134.742188 302.882812 134.367188 303.320312 134.242188 L 324.921875 129.730469 C 325.359375 129.667969 325.609375 129.292969 325.546875 128.980469 C 325.484375 128.605469 325.109375 128.417969 324.671875 128.480469 L 303.070312 132.988281 C 302.632812 133.113281 302.195312 132.863281 302.132812 132.488281 L 302.132812 132.425781 C 302.070312 132.050781 302.382812 131.671875 302.820312 131.546875 L 324.421875 127.039062 C 324.859375 126.976562 325.109375 126.601562 325.046875 126.289062 C 324.984375 125.976562 324.609375 125.726562 324.171875 125.789062 L 302.570312 130.296875 C 302.132812 130.421875 301.695312 130.171875 301.632812 129.796875 L 301.632812 129.730469 C 301.570312 129.355469 301.882812 128.980469 302.320312 128.855469 L 323.921875 124.347656 C 324.359375 124.285156 324.609375 123.910156 324.546875 123.597656 C 324.484375 123.222656 324.109375 123.03125 323.671875 123.09375 L 302.070312 127.605469 C 301.632812 127.730469 301.191406 127.476562 301.128906 127.101562 L 301.128906 127.039062 C 301.066406 126.664062 301.378906 126.289062 301.820312 126.164062 L 323.417969 121.65625 C 323.859375 121.59375 324.109375 121.21875 324.046875 120.902344 C 323.984375 120.527344 323.609375 120.339844 323.167969 120.402344 L 301.570312 124.910156 C 301.128906 125.035156 300.691406 124.785156 300.628906 124.410156 L 300.628906 124.347656 C 300.566406 123.972656 300.878906 123.597656 301.316406 123.472656 L 322.917969 118.964844 C 323.355469 118.902344 323.609375 118.523438 323.546875 118.210938 C 323.484375 117.898438 323.105469 117.648438 322.667969 117.710938 L 301.066406 122.21875 C 300.628906 122.34375 300.191406 122.09375 300.128906 121.71875 L 300.128906 121.65625 C 300.066406 121.28125 300.378906 120.902344 300.816406 120.777344 L 322.417969 116.269531 C 322.855469 116.207031 323.105469 115.832031 323.042969 115.519531 C 322.980469 115.144531 322.605469 114.957031 322.167969 115.019531 L 300.566406 119.527344 C 300.128906 119.652344 299.691406 119.402344 299.628906 119.027344 L 299.628906 118.964844 C 299.566406 118.585938 299.878906 118.210938 300.316406 118.085938 L 321.917969 113.578125 C 322.355469 113.515625 322.605469 113.140625 322.542969 112.828125 C 322.480469 112.453125 322.105469 112.265625 321.667969 112.328125 L 300.066406 116.835938 C 299.628906 116.960938 299.1875 116.710938 299.125 116.332031 L 299.125 116.269531 C 299.0625 115.894531 299.378906 115.519531 299.816406 115.394531 L 321.417969 110.886719 C 321.855469 110.824219 322.105469 110.449219 322.042969 110.136719 C 321.980469 109.757812 321.605469 109.570312 321.164062 109.632812 L 299.566406 114.140625 C 299.125 114.265625 298.6875 114.015625 298.625 113.640625 L 298.625 113.578125 C 298.5625 113.203125 298.875 112.828125 299.316406 112.703125 L 320.914062 108.195312 C 321.355469 108.132812 321.605469 107.753906 321.542969 107.441406 C 321.480469 107.066406 321.101562 106.878906 320.664062 106.941406 L 299.0625 111.449219 C 298.625 111.574219 298.1875 111.324219 298.125 110.949219 L 298.125 110.886719 C 298.0625 110.511719 298.375 110.136719 298.8125 110.011719 L 320.414062 105.5 C 320.851562 105.4375 321.101562 105.0625 321.039062 104.75 C 320.976562 104.375 320.601562 104.1875 320.164062 104.25 L 298.5625 108.757812 C 298.125 108.882812 297.6875 108.632812 297.625 108.257812 L 297.625 108.195312 C 297.5625 107.820312 297.875 107.441406 298.3125 107.316406 L 319.914062 102.808594 C 320.351562 102.746094 320.601562 102.371094 320.539062 102.058594 C 320.476562 101.746094 320.101562 101.496094 319.664062 101.558594 L 298.0625 106.066406 C 297.625 106.191406 297.1875 105.941406 297.125 105.5625 L 297.125 105.5 C 297.0625 105.125 297.375 104.75 297.8125 104.625 L 319.414062 100.117188 C 319.851562 100.054688 320.101562 99.679688 320.039062 99.367188 C 319.976562 98.992188 319.601562 98.800781 319.164062 98.863281 L 297.5625 103.371094 C 297.125 103.5 296.683594 103.246094 296.621094 102.871094 L 296.621094 102.808594 C 296.558594 102.433594 296.871094 102.058594 297.3125 101.933594 L 318.910156 97.425781 C 319.351562 97.363281 319.601562 96.988281 319.539062 96.671875 C 319.476562 96.359375 319.101562 96.109375 318.660156 96.171875 L 297.0625 100.679688 C 296.621094 100.804688 296.183594 100.554688 296.121094 100.179688 L 296.121094 100.117188 C 296.058594 99.742188 296.371094 99.367188 296.808594 99.242188 L 318.410156 94.734375 C 318.847656 94.671875 319.101562 94.292969 319.039062 93.980469 C 318.972656 93.667969 318.597656 93.417969 318.160156 93.480469 L 296.558594 97.988281 C 296.121094 98.113281 295.683594 97.863281 295.621094 97.488281 L 295.621094 97.425781 C 295.558594 97.050781 295.871094 96.671875 296.308594 96.546875 L 317.910156 92.039062 C 318.347656 91.976562 318.597656 91.601562 318.535156 91.289062 C 318.472656 90.914062 318.097656 90.726562 317.660156 90.789062 L 296.058594 95.296875 C 295.621094 95.421875 295.183594 95.171875 295.121094 94.796875 C 295.058594 94.417969 295.371094 94.042969 295.808594 93.917969 L 316.03125 89.722656 C 317.222656 89.472656 318.035156 88.472656 317.785156 87.46875 C 317.597656 86.53125 316.59375 85.96875 315.46875 86.09375 L 295.683594 88.472656 C 285.101562 89.722656 277.527344 98.488281 279.339844 107.191406 Z M 294.242188 189.085938 " fill-opacity="1" fill-rule="nonzero"/><path fill="#ffffff" d="M 290.613281 256.832031 C 292.742188 252.324219 297.875 249.445312 296.246094 246.25 C 294.117188 242.058594 289.109375 247.878906 283.914062 247.003906 C 283.285156 246.503906 282.722656 246.0625 282.035156 245.625 C 281.972656 245.5625 281.910156 245.5625 281.847656 245.5 C 275.019531 241.117188 269.949219 234.480469 267.882812 226.59375 L 261.058594 200.359375 C 259.871094 195.851562 259.933594 191.089844 261.121094 186.644531 C 260.621094 186.644531 260.121094 186.644531 259.617188 186.707031 C 255.488281 187.023438 251.417969 185.832031 248.160156 183.390625 L 259.746094 220.082031 C 263 230.285156 260.933594 241.492188 254.046875 249.695312 C 252.667969 251.324219 251.480469 253.265625 250.601562 255.394531 C 246.847656 264.597656 250.101562 275.429688 258.367188 281 C 269.199219 288.328125 283.785156 284.320312 289.484375 272.800781 C 292.050781 267.726562 292.300781 261.96875 290.613281 256.832031 Z M 263 277.246094 C 255.363281 273.175781 252.417969 263.65625 256.488281 256.019531 C 260.558594 248.378906 270.074219 245.4375 277.714844 249.507812 C 285.351562 253.578125 288.292969 263.09375 284.226562 270.734375 C 280.15625 278.371094 270.636719 281.3125 263 277.246094 Z M 263 277.246094 " fill-opacity="1" fill-rule="nonzero"/><path fill="#ffffff" d="M 216.355469 83.023438 L 231.066406 129.542969 L 260.496094 158.28125 L 219.359375 81.773438 C 218.421875 80.019531 215.730469 81.144531 216.355469 83.023438 Z M 216.355469 83.023438 " fill-opacity="1" fill-rule="nonzero"/><path fill="#ffffff" d="M 192 99.867188 L 246.535156 177.816406 C 249.414062 181.949219 254.296875 184.265625 259.304688 183.828125 C 266.507812 183.265625 273.644531 185.644531 279.027344 190.402344 L 299.378906 208.308594 C 305.449219 213.695312 309.144531 221.207031 309.957031 229.285156 C 309.957031 229.347656 309.957031 229.472656 309.957031 229.535156 C 311.148438 240.117188 320.289062 248.316406 330.933594 248.441406 C 333 248.441406 335.003906 248.191406 336.882812 247.628906 C 341.453125 246.378906 346.398438 247.878906 349.652344 251.324219 C 352.160156 254.015625 354.414062 255.582031 356.226562 255.015625 C 358.796875 254.203125 359.484375 251.574219 354.160156 245.25 C 351.34375 241.929688 350.28125 237.421875 351.53125 233.292969 C 352.347656 230.535156 352.660156 227.53125 352.285156 224.464844 C 351.09375 214.570312 342.953125 206.742188 333 205.929688 C 330.683594 205.742188 328.429688 205.929688 326.238281 206.429688 C 315.84375 208.871094 304.886719 205.617188 297.25 198.167969 L 194.503906 97.800781 C 193.0625 96.421875 190.871094 98.238281 192 99.867188 Z M 330.871094 211.503906 C 339.511719 211.316406 346.710938 218.203125 346.898438 226.84375 C 347.085938 235.484375 340.199219 242.683594 331.558594 242.871094 C 322.917969 243.058594 315.71875 236.171875 315.53125 227.53125 C 315.34375 218.890625 322.230469 211.691406 330.871094 211.503906 Z M 257.363281 170.554688 C 258.117188 172.496094 257.175781 174.75 255.234375 175.5 C 253.296875 176.253906 251.042969 175.3125 250.289062 173.371094 C 249.539062 171.429688 250.476562 169.175781 252.417969 168.425781 C 254.421875 167.613281 256.613281 168.550781 257.363281 170.554688 Z M 257.363281 170.554688 " fill-opacity="1" fill-rule="nonzero"/><g clip-path="url(#897ae34229)"><path fill="#ffffff" d="M 75.777344 209.625 L 125.492188 209.625 L 125.492188 137.550781 L 169.15625 137.550781 C 173.140625 137.550781 176.886719 139.101562 179.703125 141.921875 C 182.519531 144.742188 184.066406 148.492188 184.0625 152.476562 L 183.960938 217.578125 C 183.949219 225.503906 177.492188 231.949219 169.570312 231.949219 L 127.03125 231.949219 L 93.886719 281.625 L 169.570312 281.625 C 204.84375 281.625 233.582031 252.925781 233.636719 217.652344 L 233.734375 152.550781 C 233.761719 135.28125 227.058594 119.042969 214.855469 106.824219 C 202.652344 94.601562 186.425781 87.875 169.15625 87.875 L 75.777344 87.808594 Z M 75.777344 209.625 " fill-opacity="1" fill-rule="nonzero"/></g><g fill="#ecff77" fill-opacity="1"><g transform="translate(-33.772742, 268.486584)"><g><path d="M 55.734375 -20.578125 C 55.734375 -27.347656 57.769531 -32.769531 61.84375 -36.84375 C 65.925781 -40.925781 71.351562 -42.96875 78.125 -42.96875 C 84.894531 -42.96875 90.316406 -40.925781 94.390625 -36.84375 C 98.472656 -32.769531 100.515625 -27.347656 100.515625 -20.578125 C 100.515625 -13.628906 98.472656 -8.023438 94.390625 -3.765625 C 90.316406 0.484375 84.894531 2.609375 78.125 2.609375 C 71.351562 2.609375 65.925781 0.484375 61.84375 -3.765625 C 57.769531 -8.023438 55.734375 -13.628906 55.734375 -20.578125 Z M 55.734375 -20.578125 "/></g></g></g></svg>