<svg width="24" height="24" viewBox="0 0 24 24" fill="none" xmlns="http://www.w3.org/2000/svg">
<mask id="mask0_9_49" style="mask-type:luminance" maskUnits="userSpaceOnUse" x="0" y="0" width="24" height="24">
<path d="M24 0H0V24H24V0Z" fill="white"/>
</mask>
<g mask="url(#mask0_9_49)">
<path d="M21 24H19V18.957C18.9992 18.173 18.6874 17.4214 18.1331 16.867C17.5787 16.3126 16.827 16.0008 16.043 16H7.957C7.17299 16.0008 6.42133 16.3126 5.86696 16.867C5.31259 17.4214 5.00079 18.173 5 18.957V24H3V18.957C3.00158 17.6428 3.52435 16.3829 4.45362 15.4536C5.38289 14.5244 6.6428 14.0016 7.957 14H16.043C17.3572 14.0016 18.6171 14.5244 19.5464 15.4536C20.4757 16.3829 20.9984 17.6428 21 18.957V24Z" fill="#ECFF77"/>
<path d="M12 12C10.8134 12 9.65326 11.6481 8.66658 10.9888C7.67988 10.3295 6.91085 9.39246 6.45672 8.2961C6.0026 7.19974 5.88378 5.99334 6.11529 4.82946C6.3468 3.66557 6.91824 2.59647 7.75736 1.75736C8.59647 0.918244 9.66556 0.346802 10.8295 0.115291C11.9934 -0.11622 13.1998 0.00259981 14.2961 0.456726C15.3925 0.910854 16.3296 1.67988 16.9889 2.66658C17.6481 3.65327 18 4.81331 18 6C17.9984 7.59081 17.3658 9.11601 16.2409 10.2409C15.1161 11.3658 13.5909 11.9984 12 12ZM12 2C11.2089 2 10.4356 2.23459 9.77776 2.67412C9.11992 3.11365 8.60723 3.73836 8.30448 4.46927C8.00173 5.20017 7.92252 6.00444 8.07686 6.78036C8.2312 7.55628 8.61216 8.26902 9.17157 8.82843C9.73096 9.38784 10.4438 9.76878 11.2197 9.92318C11.9956 10.0775 12.7999 9.99828 13.5308 9.69548C14.2617 9.39277 14.8864 8.88008 15.3259 8.22228C15.7654 7.56448 16 6.79112 16 6C16 4.93913 15.5786 3.92172 14.8285 3.17157C14.0783 2.42143 13.0609 2 12 2Z" fill="#ECFF77"/>
</g>
</svg>
